<svg width="1440" height="62" viewBox="0 0 1440 62" fill="none" xmlns="http://www.w3.org/2000/svg">
<rect width="1440" height="62" fill="white"/>
<path d="M1.19 23.61L-0.23 23V22.57H6.5V23L4.86 23.59L8.94 29.42L8.19 29.39L11.57 23.59L10.01 23V22.57H14.41V23L13 23.59L9.02 30.04V34.99L10.48 35.57V36H4.44V35.57L5.9 34.99V30.07L1.19 23.61ZM21.1922 22.3C22.2255 22.3 23.1655 22.4667 24.0122 22.8C24.8655 23.1267 25.5955 23.5967 26.2022 24.21C26.8155 24.8233 27.2889 25.5567 27.6222 26.41C27.9555 27.2633 28.1222 28.2133 28.1222 29.26C28.1222 30.2933 27.9455 31.24 27.5922 32.1C27.2389 32.9533 26.7389 33.6933 26.0922 34.32C25.4522 34.94 24.6922 35.42 23.8122 35.76C22.9389 36.0933 21.9722 36.26 20.9122 36.26C19.8789 36.26 18.9389 36.0967 18.0922 35.77C17.2455 35.4367 16.5155 34.9667 15.9022 34.36C15.2889 33.7467 14.8155 33.0133 14.4822 32.16C14.1555 31.3 13.9922 30.35 13.9922 29.31C13.9922 28.27 14.1655 27.3233 14.5122 26.47C14.8655 25.61 15.3622 24.87 16.0022 24.25C16.6489 23.63 17.4089 23.15 18.2822 22.81C19.1622 22.47 20.1322 22.3 21.1922 22.3ZM21.1522 34.96C21.8789 34.96 22.5189 34.7733 23.0722 34.4C23.6322 34.0267 24.0689 33.4633 24.3822 32.71C24.7022 31.9567 24.8622 31.01 24.8622 29.87C24.8622 28.4833 24.6955 27.3267 24.3622 26.4C24.0289 25.4733 23.5689 24.7767 22.9822 24.31C22.3955 23.8367 21.7189 23.6 20.9522 23.6C20.2322 23.6 19.5922 23.7867 19.0322 24.16C18.4789 24.5333 18.0422 25.0967 17.7222 25.85C17.4089 26.6033 17.2522 27.5533 17.2522 28.7C17.2522 30.08 17.4155 31.2367 17.7422 32.17C18.0755 33.0967 18.5355 33.7933 19.1222 34.26C19.7155 34.7267 20.3922 34.96 21.1522 34.96ZM41.21 30.65V23.58L39.65 23V22.57H43.83V23L42.38 23.58V30.59C42.38 31.83 42.16 32.8733 41.72 33.72C41.28 34.56 40.6367 35.1933 39.79 35.62C38.9433 36.0467 37.9033 36.26 36.67 36.26C35.3433 36.26 34.2267 36.05 33.32 35.63C32.4133 35.21 31.7267 34.5733 31.26 33.72C30.8 32.8667 30.57 31.8033 30.57 30.53V23.58L29.11 23V22.57H35.15V23L33.69 23.58V30.54C33.69 31.38 33.8267 32.08 34.1 32.64C34.38 33.2 34.7933 33.62 35.34 33.9C35.8933 34.18 36.58 34.32 37.4 34.32C38.2067 34.32 38.8933 34.1833 39.46 33.91C40.0267 33.63 40.46 33.2167 40.76 32.67C41.06 32.1233 41.21 31.45 41.21 30.65ZM46.0131 27.87L45.1531 23.1V22.57H47.8931V23.1L46.9931 27.87H46.0131ZM50.5745 23.61L49.0945 23V22.57H55.6645V23L53.9745 23.59L58.0245 33.63L57.5445 33.65L61.1345 23.59L59.5445 23V22.57H63.9345V23L62.4645 23.59L57.7645 36.07H55.7945L50.5745 23.61ZM73.3695 26.31L73.3495 28.95L73.3695 31.59H72.4095L72.1495 29.56L67.4495 29.55V28.35L72.1495 28.34L72.4095 26.31H73.3695ZM76.1395 26.47L75.5695 26.61L73.3895 23.32L74.2395 23.78H67.4095V22.57H73.7895L75.0295 21.9H75.3295L76.1395 26.47ZM73.7295 35.24L76.0695 31.68L76.5695 31.81L75.7095 36.73H75.3795L74.0395 36H67.4095V34.79H74.3895L73.7295 35.24ZM64.4495 36V35.57L65.8995 34.99V23.58L64.4495 23V22.57H69.0295V36H64.4495ZM84.9328 23.78L85.1028 22.57H89.0728C90.1128 22.57 90.9528 22.71 91.5928 22.99C92.2395 23.2633 92.7128 23.64 93.0128 24.12C93.3128 24.5933 93.4628 25.13 93.4628 25.73C93.4628 26.5633 93.1728 27.2633 92.5928 27.83C92.0195 28.3967 91.2428 28.7233 90.2628 28.81L90.3028 28.66C91.5361 28.7267 92.5095 29.0767 93.2228 29.71C93.9361 30.3433 94.2928 31.1467 94.2928 32.12C94.2928 32.86 94.1128 33.5233 93.7528 34.11C93.3995 34.6967 92.8395 35.16 92.0728 35.5C91.3128 35.8333 90.3195 36 89.0928 36H85.1128L84.9228 34.79H88.1028C88.7095 34.79 89.2328 34.6933 89.6728 34.5C90.1128 34.3067 90.4495 34.0067 90.6828 33.6C90.9161 33.1933 91.0328 32.6767 91.0328 32.05C91.0328 31.5433 90.9328 31.0967 90.7328 30.71C90.5328 30.3233 90.2228 30.0233 89.8028 29.81C89.3895 29.59 88.8528 29.48 88.1928 29.48H84.9128L84.9328 28.27H88.1028C88.7895 28.27 89.3328 28.0767 89.7328 27.69C90.1328 27.2967 90.3328 26.7133 90.3328 25.94C90.3328 25.5133 90.2428 25.1367 90.0628 24.81C89.8895 24.4833 89.6195 24.23 89.2528 24.05C88.8861 23.87 88.4261 23.78 87.8728 23.78H84.9328ZM81.8028 36V35.57L83.2628 34.99V23.58L81.8028 23V22.57H86.3928V36H81.8028ZM107.284 30.65V23.58L105.724 23V22.57H109.904V23L108.454 23.58V30.59C108.454 31.83 108.234 32.8733 107.794 33.72C107.354 34.56 106.711 35.1933 105.864 35.62C105.018 36.0467 103.978 36.26 102.744 36.26C101.418 36.26 100.301 36.05 99.3942 35.63C98.4876 35.21 97.8009 34.5733 97.3342 33.72C96.8742 32.8667 96.6442 31.8033 96.6442 30.53V23.58L95.1842 23V22.57H101.224V23L99.7642 23.58V30.54C99.7642 31.38 99.9009 32.08 100.174 32.64C100.454 33.2 100.868 33.62 101.414 33.9C101.968 34.18 102.654 34.32 103.474 34.32C104.281 34.32 104.968 34.1833 105.534 33.91C106.101 33.63 106.534 33.2167 106.834 32.67C107.134 32.1233 107.284 31.45 107.284 30.65ZM117.003 35.57V36H110.973V35.57L112.423 34.99V23.58L110.973 23V22.57H117.003V23L115.553 23.58V34.99L117.003 35.57ZM129.176 36.8H128.776L127.336 36H121.316V34.79H127.946L127.026 35.21L129.606 31.4L130.166 31.54L129.176 36.8ZM122.936 23.58V36H118.356V35.57L119.806 34.99V23.58L118.356 23V22.57H124.386V23L122.936 23.58ZM133.67 23.21H136.79V34.99L138.25 35.57V36H132.21V35.57L133.67 34.99V23.21ZM140.43 23.78H129.78L131.05 23.44L129.28 26.63L128.66 26.5L129.09 21.84H129.45L131.17 22.81L130.01 22.57H140.2L139.39 22.81L141.11 21.84H141.47L141.9 26.5L141.29 26.63L139.52 23.44L140.43 23.78ZM150.623 23.21H153.743V34.99L155.203 35.57V36H149.163V35.57L150.623 34.99V23.21ZM157.383 23.78H146.733L148.003 23.44L146.233 26.63L145.613 26.5L146.043 21.84H146.403L148.123 22.81L146.963 22.57H157.153L156.343 22.81L158.063 21.84H158.423L158.853 26.5L158.243 26.63L156.473 23.44L157.383 23.78ZM164.44 34.99L165.89 35.57V36H159.86V35.57L161.31 34.99V23.58L159.86 23V22.57H165.89V23L164.44 23.58V34.99ZM173.65 34.99L175.11 35.57V36H169.07V35.57L170.53 34.99V23.58L169.07 23V22.57H175.11V23L173.65 23.58V34.99ZM162.71 29.74V28.53H172.25V29.74H162.71ZM185.381 26.31L185.361 28.95L185.381 31.59H184.421L184.161 29.56L179.461 29.55V28.35L184.161 28.34L184.421 26.31H185.381ZM188.151 26.47L187.581 26.61L185.401 23.32L186.251 23.78H179.421V22.57H185.801L187.041 21.9H187.341L188.151 26.47ZM185.741 35.24L188.081 31.68L188.581 31.81L187.721 36.73H187.391L186.051 36H179.421V34.79H186.401L185.741 35.24ZM176.461 36V35.57L177.911 34.99V23.58L176.461 23V22.57H181.041V36H176.461ZM202.785 26.49C202.785 25.9167 202.675 25.43 202.455 25.03C202.235 24.6233 201.888 24.3133 201.415 24.1C200.941 23.8867 200.311 23.78 199.525 23.78H196.395L196.445 22.57H200.675C201.915 22.57 202.915 22.7433 203.675 23.09C204.441 23.43 204.998 23.8933 205.345 24.48C205.698 25.0667 205.875 25.7167 205.875 26.43C205.875 27.15 205.695 27.8167 205.335 28.43C204.975 29.0367 204.411 29.52 203.645 29.88C202.878 30.24 201.888 30.42 200.675 30.42H196.445L196.395 29.21H200.075C200.608 29.21 201.078 29.1067 201.485 28.9C201.891 28.6933 202.208 28.39 202.435 27.99C202.668 27.5833 202.785 27.0833 202.785 26.49ZM198.405 22.57V34.99L199.855 35.57V36H193.825V35.57L195.275 34.99V23.58L193.825 23V22.57H198.405ZM213.044 28.64C213.784 28.64 214.384 28.4333 214.844 28.02C215.31 27.6067 215.544 27.0067 215.544 26.22C215.544 25.7 215.444 25.26 215.244 24.9C215.044 24.5333 214.724 24.2567 214.284 24.07C213.844 23.8767 213.267 23.78 212.554 23.78H208.814L209.384 22.57H213.974C215.094 22.57 215.994 22.7233 216.674 23.03C217.36 23.33 217.857 23.7333 218.164 24.24C218.477 24.7467 218.634 25.31 218.634 25.93C218.634 26.53 218.49 27.07 218.204 27.55C217.924 28.03 217.504 28.4233 216.944 28.73C216.39 29.0367 215.694 29.23 214.854 29.31V29.26C215.494 29.2867 215.997 29.3767 216.364 29.53C216.73 29.6767 217.014 29.9 217.214 30.2C217.42 30.4933 217.6 30.8767 217.754 31.35L218.554 33.83C218.694 34.27 218.834 34.59 218.974 34.79C219.114 34.9833 219.277 35.1067 219.464 35.16C219.657 35.2067 219.894 35.23 220.174 35.23V36.03C219.254 36.0967 218.504 36.1167 217.924 36.09C217.344 36.07 216.887 35.99 216.554 35.85C216.22 35.7033 215.964 35.49 215.784 35.21C215.604 34.93 215.454 34.57 215.334 34.13L214.654 31.66C214.52 31.18 214.384 30.81 214.244 30.55C214.104 30.29 213.927 30.11 213.714 30.01C213.5 29.9033 213.214 29.85 212.854 29.85H209.284L208.704 28.64H213.044ZM211.354 22.57V34.99L212.804 35.57V36H206.764V35.57L208.224 34.99V23.58L206.764 23V22.57H211.354ZM227.852 22.3C228.886 22.3 229.826 22.4667 230.672 22.8C231.526 23.1267 232.256 23.5967 232.862 24.21C233.476 24.8233 233.949 25.5567 234.282 26.41C234.616 27.2633 234.782 28.2133 234.782 29.26C234.782 30.2933 234.606 31.24 234.252 32.1C233.899 32.9533 233.399 33.6933 232.752 34.32C232.112 34.94 231.352 35.42 230.472 35.76C229.599 36.0933 228.632 36.26 227.572 36.26C226.539 36.26 225.599 36.0967 224.752 35.77C223.906 35.4367 223.176 34.9667 222.562 34.36C221.949 33.7467 221.476 33.0133 221.142 32.16C220.816 31.3 220.652 30.35 220.652 29.31C220.652 28.27 220.826 27.3233 221.172 26.47C221.526 25.61 222.022 24.87 222.662 24.25C223.309 23.63 224.069 23.15 224.942 22.81C225.822 22.47 226.792 22.3 227.852 22.3ZM227.812 34.96C228.539 34.96 229.179 34.7733 229.732 34.4C230.292 34.0267 230.729 33.4633 231.042 32.71C231.362 31.9567 231.522 31.01 231.522 29.87C231.522 28.4833 231.356 27.3267 231.022 26.4C230.689 25.4733 230.229 24.7767 229.642 24.31C229.056 23.8367 228.379 23.6 227.612 23.6C226.892 23.6 226.252 23.7867 225.692 24.16C225.139 24.5333 224.702 25.0967 224.382 25.85C224.069 26.6033 223.912 27.5533 223.912 28.7C223.912 30.08 224.076 31.2367 224.402 32.17C224.736 33.0967 225.196 33.7933 225.782 34.26C226.376 34.7267 227.052 34.96 227.812 34.96ZM242.282 31.39C242.282 32.1033 242.142 32.76 241.862 33.36C241.589 33.9533 241.209 34.4667 240.722 34.9C240.236 35.3333 239.669 35.67 239.022 35.91C238.382 36.1433 237.692 36.26 236.952 36.26C236.526 36.26 236.159 36.2033 235.852 36.09C235.546 35.9767 235.312 35.8167 235.152 35.61C234.992 35.4033 234.912 35.1567 234.912 34.87C234.912 34.5967 234.999 34.36 235.172 34.16C235.352 33.9533 235.589 33.85 235.882 33.85C236.009 33.85 236.152 33.9067 236.312 34.02C236.472 34.1333 236.642 34.2667 236.822 34.42C237.002 34.5667 237.182 34.6967 237.362 34.81C237.542 34.9233 237.719 34.98 237.892 34.98C238.279 34.98 238.586 34.8167 238.812 34.49C239.039 34.1567 239.152 33.59 239.152 32.79V23.58L237.602 23V22.57H243.722V23L242.272 23.58L242.282 31.39ZM253.702 26.31L253.682 28.95L253.702 31.59H252.742L252.482 29.56L247.782 29.55V28.35L252.482 28.34L252.742 26.31H253.702ZM256.472 26.47L255.902 26.61L253.722 23.32L254.572 23.78H247.742V22.57H254.122L255.362 21.9H255.662L256.472 26.47ZM254.062 35.24L256.402 31.68L256.902 31.81L256.042 36.73H255.712L254.372 36H247.742V34.79H254.722L254.062 35.24ZM244.782 36V35.57L246.232 34.99V23.58L244.782 23V22.57H249.362V36H244.782ZM266.584 35C267.004 35 267.4 34.9633 267.774 34.89C268.147 34.8167 268.57 34.68 269.044 34.48L268.384 34.96L270.204 31.93H270.764L270.304 35.51C269.697 35.75 269.017 35.9333 268.264 36.06C267.51 36.1933 266.704 36.26 265.844 36.26C264.63 36.26 263.544 36.11 262.584 35.81C261.63 35.51 260.817 35.07 260.144 34.49C259.477 33.9033 258.967 33.1833 258.614 32.33C258.267 31.4767 258.094 30.4967 258.094 29.39C258.094 27.9833 258.42 26.75 259.074 25.69C259.734 24.6233 260.67 23.7933 261.884 23.2C263.104 22.6 264.55 22.3 266.224 22.3C266.657 22.3 267.084 22.3267 267.504 22.38C267.93 22.4267 268.437 22.5167 269.024 22.65L268.224 22.85L269.574 21.86H269.944L270.664 26.87L270.044 27.01L267.914 23.64L268.754 24.54C268.227 24.1733 267.727 23.92 267.254 23.78C266.78 23.6333 266.284 23.56 265.764 23.56C265.05 23.56 264.42 23.6633 263.874 23.87C263.327 24.0767 262.864 24.3833 262.484 24.79C262.11 25.1967 261.824 25.7067 261.624 26.32C261.43 26.9267 261.334 27.6367 261.334 28.45C261.334 29.5433 261.46 30.5 261.714 31.32C261.974 32.1333 262.34 32.8133 262.814 33.36C263.287 33.9067 263.844 34.3167 264.484 34.59C265.124 34.8633 265.824 35 266.584 35ZM276.795 23.21H279.915V34.99L281.375 35.57V36H275.335V35.57L276.795 34.99V23.21ZM283.555 23.78H272.905L274.175 23.44L272.405 26.63L271.785 26.5L272.215 21.84H272.575L274.295 22.81L273.135 22.57H283.325L282.515 22.81L284.235 21.84H284.595L285.025 26.5L284.415 26.63L282.645 23.44L283.555 23.78ZM294.724 23.1L293.144 22.84L294.414 21.86H294.764L295.554 26.56L294.944 26.7L292.784 23.48L293.484 24.28C293.131 24.02 292.758 23.8233 292.364 23.69C291.978 23.5567 291.581 23.49 291.174 23.49C290.348 23.49 289.744 23.65 289.364 23.97C288.991 24.2833 288.804 24.7067 288.804 25.24C288.804 25.6067 288.901 25.9167 289.094 26.17C289.288 26.4167 289.548 26.63 289.874 26.81C290.208 26.99 290.581 27.1533 290.994 27.3C291.408 27.44 291.838 27.5867 292.284 27.74C292.731 27.9 293.178 28.0833 293.624 28.29C294.071 28.4967 294.478 28.7533 294.844 29.06C295.218 29.36 295.514 29.74 295.734 30.2C295.961 30.6533 296.074 31.2033 296.074 31.85C296.074 32.8167 295.831 33.6267 295.344 34.28C294.864 34.9333 294.211 35.4267 293.384 35.76C292.558 36.0933 291.621 36.26 290.574 36.26C289.861 36.26 289.218 36.2167 288.644 36.13C288.078 36.0433 287.481 35.8867 286.854 35.66L285.984 31.79H286.604L289.594 35.66L287.314 34.23C287.848 34.51 288.324 34.71 288.744 34.83C289.171 34.95 289.621 35.01 290.094 35.01C290.821 35.01 291.414 34.93 291.874 34.77C292.341 34.61 292.688 34.3733 292.914 34.06C293.141 33.74 293.254 33.35 293.254 32.89C293.254 32.45 293.138 32.0867 292.904 31.8C292.671 31.5067 292.364 31.2633 291.984 31.07C291.611 30.8767 291.198 30.71 290.744 30.57C290.298 30.4233 289.861 30.27 289.434 30.11C289.008 29.95 288.598 29.77 288.204 29.57C287.818 29.3633 287.471 29.1167 287.164 28.83C286.864 28.5367 286.628 28.18 286.454 27.76C286.281 27.34 286.194 26.8333 286.194 26.24C286.194 25.44 286.401 24.7467 286.814 24.16C287.228 23.5733 287.814 23.1167 288.574 22.79C289.334 22.4633 290.231 22.3 291.264 22.3C291.904 22.3 292.498 22.3633 293.044 22.49C293.591 22.61 294.151 22.8133 294.724 23.1Z" fill="#87D498"/>
<path d="M327.17 34.99V23.77L325.52 22.95V22.57H330.55L337.81 32.77L337.01 33.27V23.58L335.4 23V22.57H339.63V23L338.18 23.58V36.07H336.27L327.85 24.01L328.33 23.66V34.99L329.94 35.57V36H325.71V35.57L327.17 34.99ZM347.77 22.3C348.803 22.3 349.743 22.4667 350.59 22.8C351.443 23.1267 352.173 23.5967 352.78 24.21C353.393 24.8233 353.866 25.5567 354.2 26.41C354.533 27.2633 354.7 28.2133 354.7 29.26C354.7 30.2933 354.523 31.24 354.17 32.1C353.816 32.9533 353.316 33.6933 352.67 34.32C352.03 34.94 351.27 35.42 350.39 35.76C349.516 36.0933 348.55 36.26 347.49 36.26C346.456 36.26 345.516 36.0967 344.67 35.77C343.823 35.4367 343.093 34.9667 342.48 34.36C341.866 33.7467 341.393 33.0133 341.06 32.16C340.733 31.3 340.57 30.35 340.57 29.31C340.57 28.27 340.743 27.3233 341.09 26.47C341.443 25.61 341.94 24.87 342.58 24.25C343.226 23.63 343.986 23.15 344.86 22.81C345.74 22.47 346.71 22.3 347.77 22.3ZM347.73 34.96C348.456 34.96 349.096 34.7733 349.65 34.4C350.21 34.0267 350.646 33.4633 350.96 32.71C351.28 31.9567 351.44 31.01 351.44 29.87C351.44 28.4833 351.273 27.3267 350.94 26.4C350.606 25.4733 350.146 24.7767 349.56 24.31C348.973 23.8367 348.296 23.6 347.53 23.6C346.81 23.6 346.17 23.7867 345.61 24.16C345.056 24.5333 344.62 25.0967 344.3 25.85C343.986 26.6033 343.83 27.5533 343.83 28.7C343.83 30.08 343.993 31.2367 344.32 32.17C344.653 33.0967 345.113 33.7933 345.7 34.26C346.293 34.7267 346.97 34.96 347.73 34.96ZM365.446 25.23L361.526 36.07H359.556L356.006 23.61L354.526 23V22.57H360.986V23L359.326 23.59L361.996 33.34L361.296 33.37L365.076 22.5H367.076L371.156 33.48L370.316 33.61L372.666 23.59L371.046 23V22.57H375.426V23L373.986 23.59L370.746 36.07H368.776L364.676 25.35L365.446 25.23ZM389.899 36.8H389.499L388.059 36H382.039V34.79H388.669L387.749 35.21L390.329 31.4L390.889 31.54L389.899 36.8ZM383.659 23.58V36H379.079V35.57L380.529 34.99V23.58L379.079 23V22.57H385.109V23L383.659 23.58ZM400.495 26.31L400.475 28.95L400.495 31.59H399.535L399.275 29.56L394.575 29.55V28.35L399.275 28.34L399.535 26.31H400.495ZM403.265 26.47L402.695 26.61L400.515 23.32L401.365 23.78H394.535V22.57H400.915L402.155 21.9H402.455L403.265 26.47ZM400.855 35.24L403.195 31.68L403.695 31.81L402.835 36.73H402.505L401.165 36H394.535V34.79H401.515L400.855 35.24ZM391.575 36V35.57L393.025 34.99V23.58L391.575 23V22.57H396.155V36H391.575ZM409.267 23.21H412.387V34.99L413.847 35.57V36H407.807V35.57L409.267 34.99V23.21ZM416.027 23.78H405.377L406.647 23.44L404.877 26.63L404.257 26.5L404.687 21.84H405.047L406.767 22.81L405.607 22.57H415.797L414.987 22.81L416.707 21.84H417.067L417.497 26.5L416.887 26.63L415.117 23.44L416.027 23.78ZM419.457 27.87L418.597 23.1V22.57H421.337V23.1L420.437 27.87H419.457ZM431.308 23.1L429.728 22.84L430.998 21.86H431.348L432.138 26.56L431.528 26.7L429.368 23.48L430.068 24.28C429.715 24.02 429.341 23.8233 428.948 23.69C428.561 23.5567 428.165 23.49 427.758 23.49C426.931 23.49 426.328 23.65 425.948 23.97C425.575 24.2833 425.388 24.7067 425.388 25.24C425.388 25.6067 425.485 25.9167 425.678 26.17C425.871 26.4167 426.131 26.63 426.458 26.81C426.791 26.99 427.165 27.1533 427.578 27.3C427.991 27.44 428.421 27.5867 428.868 27.74C429.315 27.9 429.761 28.0833 430.208 28.29C430.655 28.4967 431.061 28.7533 431.428 29.06C431.801 29.36 432.098 29.74 432.318 30.2C432.545 30.6533 432.658 31.2033 432.658 31.85C432.658 32.8167 432.415 33.6267 431.928 34.28C431.448 34.9333 430.795 35.4267 429.968 35.76C429.141 36.0933 428.205 36.26 427.158 36.26C426.445 36.26 425.801 36.2167 425.228 36.13C424.661 36.0433 424.065 35.8867 423.438 35.66L422.568 31.79H423.188L426.178 35.66L423.898 34.23C424.431 34.51 424.908 34.71 425.328 34.83C425.755 34.95 426.205 35.01 426.678 35.01C427.405 35.01 427.998 34.93 428.458 34.77C428.925 34.61 429.271 34.3733 429.498 34.06C429.725 33.74 429.838 33.35 429.838 32.89C429.838 32.45 429.721 32.0867 429.488 31.8C429.255 31.5067 428.948 31.2633 428.568 31.07C428.195 30.8767 427.781 30.71 427.328 30.57C426.881 30.4233 426.445 30.27 426.018 30.11C425.591 29.95 425.181 29.77 424.788 29.57C424.401 29.3633 424.055 29.1167 423.748 28.83C423.448 28.5367 423.211 28.18 423.038 27.76C422.865 27.34 422.778 26.8333 422.778 26.24C422.778 25.44 422.985 24.7467 423.398 24.16C423.811 23.5733 424.398 23.1167 425.158 22.79C425.918 22.4633 426.815 22.3 427.848 22.3C428.488 22.3 429.081 22.3633 429.628 22.49C430.175 22.61 430.735 22.8133 431.308 23.1ZM442.381 34.99L443.831 35.57V36H437.801V35.57L439.251 34.99V23.58L437.801 23V22.57H443.831V23L442.381 23.58V34.99ZM451.591 34.99L453.051 35.57V36H447.011V35.57L448.471 34.99V23.58L447.011 23V22.57H453.051V23L451.591 23.58V34.99ZM440.651 29.74V28.53H450.191V29.74H440.651ZM463.123 26.31L463.103 28.95L463.123 31.59H462.163L461.903 29.56L457.203 29.55V28.35L461.903 28.34L462.163 26.31H463.123ZM465.893 26.47L465.323 26.61L463.143 23.32L463.993 23.78H457.163V22.57H463.543L464.783 21.9H465.083L465.893 26.47ZM463.483 35.24L465.823 31.68L466.323 31.81L465.463 36.73H465.133L463.793 36H457.163V34.79H464.143L463.483 35.24ZM454.203 36V35.57L455.653 34.99V23.58L454.203 23V22.57H458.783V36H454.203ZM478.065 36.8H477.665L476.225 36H470.205V34.79H476.835L475.915 35.21L478.495 31.4L479.055 31.54L478.065 36.8ZM471.825 23.58V36H467.245V35.57L468.695 34.99V23.58L467.245 23V22.57H473.275V23L471.825 23.58ZM488.7 26.49C488.7 25.9167 488.59 25.43 488.37 25.03C488.15 24.6233 487.803 24.3133 487.33 24.1C486.857 23.8867 486.227 23.78 485.44 23.78H482.31L482.36 22.57H486.59C487.83 22.57 488.83 22.7433 489.59 23.09C490.357 23.43 490.913 23.8933 491.26 24.48C491.613 25.0667 491.79 25.7167 491.79 26.43C491.79 27.15 491.61 27.8167 491.25 28.43C490.89 29.0367 490.327 29.52 489.56 29.88C488.793 30.24 487.803 30.42 486.59 30.42H482.36L482.31 29.21H485.99C486.523 29.21 486.993 29.1067 487.4 28.9C487.807 28.6933 488.123 28.39 488.35 27.99C488.583 27.5833 488.7 27.0833 488.7 26.49ZM484.32 22.57V34.99L485.77 35.57V36H479.74V35.57L481.19 34.99V23.58L479.74 23V22.57H484.32ZM495.885 23.61L494.465 23V22.57H501.195V23L499.555 23.59L503.635 29.42L502.885 29.39L506.265 23.59L504.705 23V22.57H509.105V23L507.695 23.59L503.715 30.04V34.99L505.175 35.57V36H499.135V35.57L500.595 34.99V30.07L495.885 23.61ZM515.688 22.3C516.721 22.3 517.661 22.4667 518.508 22.8C519.361 23.1267 520.091 23.5967 520.698 24.21C521.311 24.8233 521.784 25.5567 522.118 26.41C522.451 27.2633 522.618 28.2133 522.618 29.26C522.618 30.2933 522.441 31.24 522.088 32.1C521.734 32.9533 521.234 33.6933 520.588 34.32C519.948 34.94 519.188 35.42 518.308 35.76C517.434 36.0933 516.468 36.26 515.408 36.26C514.374 36.26 513.434 36.0967 512.588 35.77C511.741 35.4367 511.011 34.9667 510.398 34.36C509.784 33.7467 509.311 33.0133 508.978 32.16C508.651 31.3 508.488 30.35 508.488 29.31C508.488 28.27 508.661 27.3233 509.008 26.47C509.361 25.61 509.858 24.87 510.498 24.25C511.144 23.63 511.904 23.15 512.778 22.81C513.658 22.47 514.628 22.3 515.688 22.3ZM515.648 34.96C516.374 34.96 517.014 34.7733 517.568 34.4C518.128 34.0267 518.564 33.4633 518.878 32.71C519.198 31.9567 519.358 31.01 519.358 29.87C519.358 28.4833 519.191 27.3267 518.858 26.4C518.524 25.4733 518.064 24.7767 517.478 24.31C516.891 23.8367 516.214 23.6 515.448 23.6C514.728 23.6 514.088 23.7867 513.528 24.16C512.974 24.5333 512.538 25.0967 512.218 25.85C511.904 26.6033 511.748 27.5533 511.748 28.7C511.748 30.08 511.911 31.2367 512.238 32.17C512.571 33.0967 513.031 33.7933 513.618 34.26C514.211 34.7267 514.888 34.96 515.648 34.96ZM535.505 30.65V23.58L533.945 23V22.57H538.125V23L536.675 23.58V30.59C536.675 31.83 536.455 32.8733 536.015 33.72C535.575 34.56 534.932 35.1933 534.085 35.62C533.239 36.0467 532.199 36.26 530.965 36.26C529.639 36.26 528.522 36.05 527.615 35.63C526.709 35.21 526.022 34.5733 525.555 33.72C525.095 32.8667 524.865 31.8033 524.865 30.53V23.58L523.405 23V22.57H529.445V23L527.985 23.58V30.54C527.985 31.38 528.122 32.08 528.395 32.64C528.675 33.2 529.089 33.62 529.635 33.9C530.189 34.18 530.875 34.32 531.695 34.32C532.502 34.32 533.189 34.1833 533.755 33.91C534.322 33.63 534.755 33.2167 535.055 32.67C535.355 32.1233 535.505 31.45 535.505 30.65ZM547.038 23.21H550.158V34.99L551.618 35.57V36H545.578V35.57L547.038 34.99V23.21ZM553.798 23.78H543.148L544.418 23.44L542.648 26.63L542.028 26.5L542.458 21.84H542.818L544.538 22.81L543.378 22.57H553.568L552.758 22.81L554.478 21.84H554.838L555.268 26.5L554.658 26.63L552.888 23.44L553.798 23.78ZM556.715 31.54V30.37H563.505V31.54H556.715ZM567.135 34.96L568.615 35.57V36H562.125V35.57L563.785 34.98L559.535 24.93L559.965 24.92L555.955 34.98L557.515 35.57V36H553.065V35.57L554.595 34.98L559.755 22.5H561.725L567.135 34.96ZM579.644 36.8H579.244L577.804 36H571.784V34.79H578.414L577.494 35.21L580.074 31.4L580.634 31.54L579.644 36.8ZM573.404 23.58V36H568.824V35.57L570.274 34.99V23.58L568.824 23V22.57H574.854V23L573.404 23.58ZM595.049 34.96L596.459 35.57V36H589.879V35.57L591.209 35.04L586.989 29.63H584.799V28.44H587.329L592.219 23.52L590.709 23V22.57H595.299V23L593.859 23.5L588.349 28.88L589.179 27.53L595.049 34.96ZM585.899 23.58V34.99L587.269 35.57V36H581.319V35.57L582.769 34.99V23.58L581.319 23V22.57H587.349V23L585.899 23.58ZM602.145 31.54V30.37H608.935V31.54H602.145ZM612.565 34.96L614.045 35.57V36H607.555V35.57L609.215 34.98L604.965 24.93L605.395 24.92L601.385 34.98L602.945 35.57V36H598.495V35.57L600.025 34.98L605.185 22.5H607.155L612.565 34.96ZM617.374 23.78L617.544 22.57H621.514C622.554 22.57 623.394 22.71 624.034 22.99C624.681 23.2633 625.154 23.64 625.454 24.12C625.754 24.5933 625.904 25.13 625.904 25.73C625.904 26.5633 625.614 27.2633 625.034 27.83C624.461 28.3967 623.684 28.7233 622.704 28.81L622.744 28.66C623.978 28.7267 624.951 29.0767 625.664 29.71C626.378 30.3433 626.734 31.1467 626.734 32.12C626.734 32.86 626.554 33.5233 626.194 34.11C625.841 34.6967 625.281 35.16 624.514 35.5C623.754 35.8333 622.761 36 621.534 36H617.554L617.364 34.79H620.544C621.151 34.79 621.674 34.6933 622.114 34.5C622.554 34.3067 622.891 34.0067 623.124 33.6C623.358 33.1933 623.474 32.6767 623.474 32.05C623.474 31.5433 623.374 31.0967 623.174 30.71C622.974 30.3233 622.664 30.0233 622.244 29.81C621.831 29.59 621.294 29.48 620.634 29.48H617.354L617.374 28.27H620.544C621.231 28.27 621.774 28.0767 622.174 27.69C622.574 27.2967 622.774 26.7133 622.774 25.94C622.774 25.5133 622.684 25.1367 622.504 24.81C622.331 24.4833 622.061 24.23 621.694 24.05C621.328 23.87 620.868 23.78 620.314 23.78H617.374ZM614.244 36V35.57L615.704 34.99V23.58L614.244 23V22.57H618.834V36H614.244ZM635.152 22.3C636.186 22.3 637.126 22.4667 637.972 22.8C638.826 23.1267 639.556 23.5967 640.162 24.21C640.776 24.8233 641.249 25.5567 641.582 26.41C641.916 27.2633 642.082 28.2133 642.082 29.26C642.082 30.2933 641.906 31.24 641.552 32.1C641.199 32.9533 640.699 33.6933 640.052 34.32C639.412 34.94 638.652 35.42 637.772 35.76C636.899 36.0933 635.932 36.26 634.872 36.26C633.839 36.26 632.899 36.0967 632.052 35.77C631.206 35.4367 630.476 34.9667 629.862 34.36C629.249 33.7467 628.776 33.0133 628.442 32.16C628.116 31.3 627.952 30.35 627.952 29.31C627.952 28.27 628.126 27.3233 628.472 26.47C628.826 25.61 629.322 24.87 629.962 24.25C630.609 23.63 631.369 23.15 632.242 22.81C633.122 22.47 634.092 22.3 635.152 22.3ZM635.112 34.96C635.839 34.96 636.479 34.7733 637.032 34.4C637.592 34.0267 638.029 33.4633 638.342 32.71C638.662 31.9567 638.822 31.01 638.822 29.87C638.822 28.4833 638.656 27.3267 638.322 26.4C637.989 25.4733 637.529 24.7767 636.942 24.31C636.356 23.8367 635.679 23.6 634.912 23.6C634.192 23.6 633.552 23.7867 632.992 24.16C632.439 24.5333 632.002 25.0967 631.682 25.85C631.369 26.6033 631.212 27.5533 631.212 28.7C631.212 30.08 631.376 31.2367 631.702 32.17C632.036 33.0967 632.496 33.7933 633.082 34.26C633.676 34.7267 634.352 34.96 635.112 34.96ZM654.97 30.65V23.58L653.41 23V22.57H657.59V23L656.14 23.58V30.59C656.14 31.83 655.92 32.8733 655.48 33.72C655.04 34.56 654.397 35.1933 653.55 35.62C652.703 36.0467 651.663 36.26 650.43 36.26C649.103 36.26 647.987 36.05 647.08 35.63C646.173 35.21 645.487 34.5733 645.02 33.72C644.56 32.8667 644.33 31.8033 644.33 30.53V23.58L642.87 23V22.57H648.91V23L647.45 23.58V30.54C647.45 31.38 647.587 32.08 647.86 32.64C648.14 33.2 648.553 33.62 649.1 33.9C649.653 34.18 650.34 34.32 651.16 34.32C651.967 34.32 652.653 34.1833 653.22 33.91C653.787 33.63 654.22 33.2167 654.52 32.67C654.82 32.1233 654.97 31.45 654.97 30.65ZM663.109 23.21H666.229V34.99L667.689 35.57V36H661.649V35.57L663.109 34.99V23.21ZM669.869 23.78H659.219L660.489 23.44L658.719 26.63L658.099 26.5L658.529 21.84H658.889L660.609 22.81L659.449 22.57H669.639L668.829 22.81L670.549 21.84H670.909L671.339 26.5L670.729 26.63L668.959 23.44L669.869 23.78ZM679.662 23.21H682.782V34.99L684.242 35.57V36H678.202V35.57L679.662 34.99V23.21ZM686.422 23.78H675.772L677.042 23.44L675.272 26.63L674.652 26.5L675.082 21.84H675.442L677.162 22.81L676.002 22.57H686.192L685.382 22.81L687.102 21.84H687.462L687.892 26.5L687.282 26.63L685.512 23.44L686.422 23.78ZM693.279 34.99L694.729 35.57V36H688.699V35.57L690.149 34.99V23.58L688.699 23V22.57H694.729V23L693.279 23.58V34.99ZM702.489 34.99L703.949 35.57V36H697.909V35.57L699.369 34.99V23.58L697.909 23V22.57H703.949V23L702.489 23.58V34.99ZM691.549 29.74V28.53H701.089V29.74H691.549ZM714.02 26.31L714 28.95L714.02 31.59H713.06L712.8 29.56L708.1 29.55V28.35L712.8 28.34L713.06 26.31H714.02ZM716.79 26.47L716.22 26.61L714.04 23.32L714.89 23.78H708.06V22.57H714.44L715.68 21.9H715.98L716.79 26.47ZM714.38 35.24L716.72 31.68L717.22 31.81L716.36 36.73H716.03L714.69 36H708.06V34.79H715.04L714.38 35.24ZM705.1 36V35.57L706.55 34.99V23.58L705.1 23V22.57H709.68V36H705.1ZM736.042 34.95L737.552 35.57V36H731.282V35.57L732.852 35.05L732.072 24.61L732.192 24.63L727.672 36.07H725.742L721.062 24.64L721.202 24.61L720.582 34.95L722.162 35.57V36H717.742V35.57L719.322 34.95L720.092 23.68L718.462 23V22.57H723.632L727.802 32.98H727.582L731.692 22.57H736.582V23L735.092 23.58L736.042 34.95Z" fill="#87D498"/>
<path d="M773.49 23.1L771.91 22.84L773.18 21.86H773.53L774.32 26.56L773.71 26.7L771.55 23.48L772.25 24.28C771.897 24.02 771.523 23.8233 771.13 23.69C770.743 23.5567 770.347 23.49 769.94 23.49C769.113 23.49 768.51 23.65 768.13 23.97C767.757 24.2833 767.57 24.7067 767.57 25.24C767.57 25.6067 767.667 25.9167 767.86 26.17C768.053 26.4167 768.313 26.63 768.64 26.81C768.973 26.99 769.347 27.1533 769.76 27.3C770.173 27.44 770.603 27.5867 771.05 27.74C771.497 27.9 771.943 28.0833 772.39 28.29C772.837 28.4967 773.243 28.7533 773.61 29.06C773.983 29.36 774.28 29.74 774.5 30.2C774.727 30.6533 774.84 31.2033 774.84 31.85C774.84 32.8167 774.597 33.6267 774.11 34.28C773.63 34.9333 772.977 35.4267 772.15 35.76C771.323 36.0933 770.387 36.26 769.34 36.26C768.627 36.26 767.983 36.2167 767.41 36.13C766.843 36.0433 766.247 35.8867 765.62 35.66L764.75 31.79H765.37L768.36 35.66L766.08 34.23C766.613 34.51 767.09 34.71 767.51 34.83C767.937 34.95 768.387 35.01 768.86 35.01C769.587 35.01 770.18 34.93 770.64 34.77C771.107 34.61 771.453 34.3733 771.68 34.06C771.907 33.74 772.02 33.35 772.02 32.89C772.02 32.45 771.903 32.0867 771.67 31.8C771.437 31.5067 771.13 31.2633 770.75 31.07C770.377 30.8767 769.963 30.71 769.51 30.57C769.063 30.4233 768.627 30.27 768.2 30.11C767.773 29.95 767.363 29.77 766.97 29.57C766.583 29.3633 766.237 29.1167 765.93 28.83C765.63 28.5367 765.393 28.18 765.22 27.76C765.047 27.34 764.96 26.8333 764.96 26.24C764.96 25.44 765.167 24.7467 765.58 24.16C765.993 23.5733 766.58 23.1167 767.34 22.79C768.1 22.4633 768.997 22.3 770.03 22.3C770.67 22.3 771.263 22.3633 771.81 22.49C772.357 22.61 772.917 22.8133 773.49 23.1ZM780.556 23.21H783.676V34.99L785.136 35.57V36H779.096V35.57L780.556 34.99V23.21ZM787.316 23.78H776.666L777.936 23.44L776.166 26.63L775.546 26.5L775.976 21.84H776.336L778.056 22.81L776.896 22.57H787.086L786.276 22.81L787.996 21.84H788.356L788.786 26.5L788.176 26.63L786.406 23.44L787.316 23.78ZM796.609 22.3C797.642 22.3 798.582 22.4667 799.429 22.8C800.282 23.1267 801.012 23.5967 801.619 24.21C802.232 24.8233 802.705 25.5567 803.039 26.41C803.372 27.2633 803.539 28.2133 803.539 29.26C803.539 30.2933 803.362 31.24 803.009 32.1C802.655 32.9533 802.155 33.6933 801.509 34.32C800.869 34.94 800.109 35.42 799.229 35.76C798.355 36.0933 797.389 36.26 796.329 36.26C795.295 36.26 794.355 36.0967 793.509 35.77C792.662 35.4367 791.932 34.9667 791.319 34.36C790.705 33.7467 790.232 33.0133 789.899 32.16C789.572 31.3 789.409 30.35 789.409 29.31C789.409 28.27 789.582 27.3233 789.929 26.47C790.282 25.61 790.779 24.87 791.419 24.25C792.065 23.63 792.825 23.15 793.699 22.81C794.579 22.47 795.549 22.3 796.609 22.3ZM796.569 34.96C797.295 34.96 797.935 34.7733 798.489 34.4C799.049 34.0267 799.485 33.4633 799.799 32.71C800.119 31.9567 800.279 31.01 800.279 29.87C800.279 28.4833 800.112 27.3267 799.779 26.4C799.445 25.4733 798.985 24.7767 798.399 24.31C797.812 23.8367 797.135 23.6 796.369 23.6C795.649 23.6 795.009 23.7867 794.449 24.16C793.895 24.5333 793.459 25.0967 793.139 25.85C792.825 26.6033 792.669 27.5533 792.669 28.7C792.669 30.08 792.832 31.2367 793.159 32.17C793.492 33.0967 793.952 33.7933 794.539 34.26C795.132 34.7267 795.809 34.96 796.569 34.96ZM813.528 26.49C813.528 25.9167 813.418 25.43 813.198 25.03C812.978 24.6233 812.632 24.3133 812.158 24.1C811.685 23.8867 811.055 23.78 810.268 23.78H807.138L807.188 22.57H811.418C812.658 22.57 813.658 22.7433 814.418 23.09C815.185 23.43 815.742 23.8933 816.088 24.48C816.442 25.0667 816.618 25.7167 816.618 26.43C816.618 27.15 816.438 27.8167 816.078 28.43C815.718 29.0367 815.155 29.52 814.388 29.88C813.622 30.24 812.632 30.42 811.418 30.42H807.188L807.138 29.21H810.818C811.352 29.21 811.822 29.1067 812.228 28.9C812.635 28.6933 812.952 28.39 813.178 27.99C813.412 27.5833 813.528 27.0833 813.528 26.49ZM809.148 22.57V34.99L810.598 35.57V36H804.568V35.57L806.018 34.99V23.58L804.568 23V22.57H809.148ZM832.491 30.65V23.58L830.931 23V22.57H835.111V23L833.661 23.58V30.59C833.661 31.83 833.441 32.8733 833.001 33.72C832.561 34.56 831.918 35.1933 831.071 35.62C830.225 36.0467 829.185 36.26 827.951 36.26C826.625 36.26 825.508 36.05 824.601 35.63C823.695 35.21 823.008 34.5733 822.541 33.72C822.081 32.8667 821.851 31.8033 821.851 30.53V23.58L820.391 23V22.57H826.431V23L824.971 23.58V30.54C824.971 31.38 825.108 32.08 825.381 32.64C825.661 33.2 826.075 33.62 826.621 33.9C827.175 34.18 827.861 34.32 828.681 34.32C829.488 34.32 830.175 34.1833 830.741 33.91C831.308 33.63 831.741 33.2167 832.041 32.67C832.341 32.1233 832.491 31.45 832.491 30.65ZM837.47 34.99V23.77L835.82 22.95V22.57H840.85L848.11 32.77L847.31 33.27V23.58L845.7 23V22.57H849.93V23L848.48 23.58V36.07H846.57L838.15 24.01L838.63 23.66V34.99L840.24 35.57V36H836.01V35.57L837.47 34.99ZM861.826 29.11C861.826 27.27 861.376 25.9233 860.476 25.07C859.582 24.21 858.356 23.78 856.796 23.78H854.046L853.786 22.57H857.276C859.022 22.57 860.472 22.8 861.626 23.26C862.786 23.72 863.652 24.42 864.226 25.36C864.806 26.2933 865.096 27.47 865.096 28.89C865.096 30.39 864.756 31.67 864.076 32.73C863.396 33.79 862.466 34.6 861.286 35.16C860.106 35.72 858.776 36 857.296 36H853.786L854.046 34.79H856.976C857.949 34.79 858.799 34.5967 859.526 34.21C860.252 33.8233 860.816 33.2133 861.216 32.38C861.622 31.54 861.826 30.45 861.826 29.11ZM850.956 36V35.57L852.406 34.99V23.58L850.956 23V22.57H855.536V36H850.956ZM875.047 26.31L875.027 28.95L875.047 31.59H874.087L873.827 29.56L869.127 29.55V28.35L873.827 28.34L874.087 26.31H875.047ZM877.817 26.47L877.247 26.61L875.067 23.32L875.917 23.78H869.087V22.57H875.467L876.707 21.9H877.007L877.817 26.47ZM875.407 35.24L877.747 31.68L878.247 31.81L877.387 36.73H877.057L875.717 36H869.087V34.79H876.067L875.407 35.24ZM866.127 36V35.57L867.577 34.99V23.58L866.127 23V22.57H870.707V36H866.127ZM885.439 28.64C886.179 28.64 886.779 28.4333 887.239 28.02C887.706 27.6067 887.939 27.0067 887.939 26.22C887.939 25.7 887.839 25.26 887.639 24.9C887.439 24.5333 887.119 24.2567 886.679 24.07C886.239 23.8767 885.662 23.78 884.949 23.78H881.209L881.779 22.57H886.369C887.489 22.57 888.389 22.7233 889.069 23.03C889.756 23.33 890.252 23.7333 890.559 24.24C890.872 24.7467 891.029 25.31 891.029 25.93C891.029 26.53 890.886 27.07 890.599 27.55C890.319 28.03 889.899 28.4233 889.339 28.73C888.786 29.0367 888.089 29.23 887.249 29.31V29.26C887.889 29.2867 888.392 29.3767 888.759 29.53C889.126 29.6767 889.409 29.9 889.609 30.2C889.816 30.4933 889.996 30.8767 890.149 31.35L890.949 33.83C891.089 34.27 891.229 34.59 891.369 34.79C891.509 34.9833 891.672 35.1067 891.859 35.16C892.052 35.2067 892.289 35.23 892.569 35.23V36.03C891.649 36.0967 890.899 36.1167 890.319 36.09C889.739 36.07 889.282 35.99 888.949 35.85C888.616 35.7033 888.359 35.49 888.179 35.21C887.999 34.93 887.849 34.57 887.729 34.13L887.049 31.66C886.916 31.18 886.779 30.81 886.639 30.55C886.499 30.29 886.322 30.11 886.109 30.01C885.896 29.9033 885.609 29.85 885.249 29.85H881.679L881.099 28.64H885.439ZM883.749 22.57V34.99L885.199 35.57V36H879.159V35.57L880.619 34.99V23.58L879.159 23V22.57H883.749ZM901.842 23.1L900.262 22.84L901.532 21.86H901.882L902.672 26.56L902.062 26.7L899.902 23.48L900.602 24.28C900.248 24.02 899.875 23.8233 899.482 23.69C899.095 23.5567 898.698 23.49 898.292 23.49C897.465 23.49 896.862 23.65 896.482 23.97C896.108 24.2833 895.922 24.7067 895.922 25.24C895.922 25.6067 896.018 25.9167 896.212 26.17C896.405 26.4167 896.665 26.63 896.992 26.81C897.325 26.99 897.698 27.1533 898.112 27.3C898.525 27.44 898.955 27.5867 899.402 27.74C899.848 27.9 900.295 28.0833 900.742 28.29C901.188 28.4967 901.595 28.7533 901.962 29.06C902.335 29.36 902.632 29.74 902.852 30.2C903.078 30.6533 903.192 31.2033 903.192 31.85C903.192 32.8167 902.948 33.6267 902.462 34.28C901.982 34.9333 901.328 35.4267 900.502 35.76C899.675 36.0933 898.738 36.26 897.692 36.26C896.978 36.26 896.335 36.2167 895.762 36.13C895.195 36.0433 894.598 35.8867 893.972 35.66L893.102 31.79H893.722L896.712 35.66L894.432 34.23C894.965 34.51 895.442 34.71 895.862 34.83C896.288 34.95 896.738 35.01 897.212 35.01C897.938 35.01 898.532 34.93 898.992 34.77C899.458 34.61 899.805 34.3733 900.032 34.06C900.258 33.74 900.372 33.35 900.372 32.89C900.372 32.45 900.255 32.0867 900.022 31.8C899.788 31.5067 899.482 31.2633 899.102 31.07C898.728 30.8767 898.315 30.71 897.862 30.57C897.415 30.4233 896.978 30.27 896.552 30.11C896.125 29.95 895.715 29.77 895.322 29.57C894.935 29.3633 894.588 29.1167 894.282 28.83C893.982 28.5367 893.745 28.18 893.572 27.76C893.398 27.34 893.312 26.8333 893.312 26.24C893.312 25.44 893.518 24.7467 893.932 24.16C894.345 23.5733 894.932 23.1167 895.692 22.79C896.452 22.4633 897.348 22.3 898.382 22.3C899.022 22.3 899.615 22.3633 900.162 22.49C900.708 22.61 901.268 22.8133 901.842 23.1ZM913.334 26.31L913.314 28.95L913.334 31.59H912.374L912.114 29.56L907.414 29.55V28.35L912.114 28.34L912.374 26.31H913.334ZM916.104 26.47L915.534 26.61L913.354 23.32L914.204 23.78H907.374V22.57H913.754L914.994 21.9H915.294L916.104 26.47ZM913.694 35.24L916.034 31.68L916.534 31.81L915.674 36.73H915.344L914.004 36H907.374V34.79H914.354L913.694 35.24ZM904.414 36V35.57L905.864 34.99V23.58L904.414 23V22.57H908.994V36H904.414ZM928.276 36.8H927.876L926.436 36H920.416V34.79H927.046L926.126 35.21L928.706 31.4L929.266 31.54L928.276 36.8ZM922.036 23.58V36H917.456V35.57L918.906 34.99V23.58L917.456 23V22.57H923.486V23L922.036 23.58ZM940.771 36.8H940.371L938.931 36H932.911V34.79H939.541L938.621 35.21L941.201 31.4L941.761 31.54L940.771 36.8ZM934.531 23.58V36H929.951V35.57L931.401 34.99V23.58L929.951 23V22.57H935.981V23L934.531 23.58ZM948.476 35.57V36H942.446V35.57L943.896 34.99V23.58L942.446 23V22.57H948.476V23L947.026 23.58V34.99L948.476 35.57ZM951.119 34.99V23.77L949.469 22.95V22.57H954.499L961.759 32.77L960.959 33.27V23.58L959.349 23V22.57H963.579V23L962.129 23.58V36.07H960.219L951.799 24.01L952.279 23.66V34.99L953.889 35.57V36H949.659V35.57L951.119 34.99ZM977.459 34.25L977.829 35.18V35.29C977.282 35.5033 976.709 35.6833 976.109 35.83C975.509 35.9767 974.882 36.0833 974.229 36.15C973.582 36.2233 972.905 36.26 972.199 36.26C970.965 36.26 969.869 36.1067 968.909 35.8C967.955 35.4867 967.149 35.0333 966.489 34.44C965.835 33.8467 965.342 33.1267 965.009 32.28C964.675 31.4267 964.509 30.4633 964.509 29.39C964.509 27.9833 964.835 26.75 965.489 25.69C966.149 24.6233 967.089 23.7933 968.309 23.2C969.529 22.6 970.989 22.3 972.689 22.3C973.155 22.3 973.609 22.3267 974.049 22.38C974.489 22.4333 974.999 22.5267 975.579 22.66L974.739 22.85L976.099 21.86H976.469L977.189 26.87L976.569 27.01L974.389 23.56L975.449 24.66C974.955 24.28 974.452 24.0033 973.939 23.83C973.425 23.65 972.855 23.56 972.229 23.56C971.502 23.56 970.859 23.6633 970.299 23.87C969.745 24.07 969.279 24.38 968.899 24.8C968.525 25.22 968.239 25.7467 968.039 26.38C967.845 27.0067 967.749 27.7467 967.749 28.6C967.749 30.0133 967.959 31.1967 968.379 32.15C968.805 33.0967 969.385 33.81 970.119 34.29C970.852 34.7633 971.679 35 972.599 35C972.985 35 973.352 34.9667 973.699 34.9C974.052 34.8333 974.382 34.7333 974.689 34.6C974.995 34.46 975.262 34.2933 975.489 34.1L974.339 35.57V31.03L972.779 30.43V30H978.799V30.43L977.459 31.01V34.25ZM983.426 23.61L982.006 23V22.57H988.736V23L987.096 23.59L991.176 29.42L990.426 29.39L993.806 23.59L992.246 23V22.57H996.646V23L995.236 23.59L991.256 30.04V34.99L992.716 35.57V36H986.676V35.57L988.136 34.99V30.07L983.426 23.61ZM1003.23 22.3C1004.26 22.3 1005.2 22.4667 1006.05 22.8C1006.9 23.1267 1007.63 23.5967 1008.24 24.21C1008.85 24.8233 1009.32 25.5567 1009.66 26.41C1009.99 27.2633 1010.16 28.2133 1010.16 29.26C1010.16 30.2933 1009.98 31.24 1009.63 32.1C1009.27 32.9533 1008.77 33.6933 1008.13 34.32C1007.49 34.94 1006.73 35.42 1005.85 35.76C1004.97 36.0933 1004.01 36.26 1002.95 36.26C1001.91 36.26 1000.97 36.0967 1000.13 35.77C999.281 35.4367 998.551 34.9667 997.938 34.36C997.325 33.7467 996.851 33.0133 996.518 32.16C996.191 31.3 996.028 30.35 996.028 29.31C996.028 28.27 996.201 27.3233 996.548 26.47C996.901 25.61 997.398 24.87 998.038 24.25C998.685 23.63 999.445 23.15 1000.32 22.81C1001.2 22.47 1002.17 22.3 1003.23 22.3ZM1003.19 34.96C1003.91 34.96 1004.55 34.7733 1005.11 34.4C1005.67 34.0267 1006.1 33.4633 1006.42 32.71C1006.74 31.9567 1006.9 31.01 1006.9 29.87C1006.9 28.4833 1006.73 27.3267 1006.4 26.4C1006.06 25.4733 1005.6 24.7767 1005.02 24.31C1004.43 23.8367 1003.75 23.6 1002.99 23.6C1002.27 23.6 1001.63 23.7867 1001.07 24.16C1000.51 24.5333 1000.08 25.0967 999.758 25.85C999.445 26.6033 999.288 27.5533 999.288 28.7C999.288 30.08 999.451 31.2367 999.778 32.17C1000.11 33.0967 1000.57 33.7933 1001.16 34.26C1001.75 34.7267 1002.43 34.96 1003.19 34.96ZM1023.05 30.65V23.58L1021.49 23V22.57H1025.67V23L1024.22 23.58V30.59C1024.22 31.83 1024 32.8733 1023.56 33.72C1023.12 34.56 1022.47 35.1933 1021.63 35.62C1020.78 36.0467 1019.74 36.26 1018.51 36.26C1017.18 36.26 1016.06 36.05 1015.16 35.63C1014.25 35.21 1013.56 34.5733 1013.1 33.72C1012.64 32.8667 1012.41 31.8033 1012.41 30.53V23.58L1010.95 23V22.57H1016.99V23L1015.53 23.58V30.54C1015.53 31.38 1015.66 32.08 1015.94 32.64C1016.22 33.2 1016.63 33.62 1017.18 33.9C1017.73 34.18 1018.42 34.32 1019.24 34.32C1020.04 34.32 1020.73 34.1833 1021.3 33.91C1021.86 33.63 1022.3 33.2167 1022.6 32.67C1022.9 32.1233 1023.05 31.45 1023.05 30.65ZM1032.8 28.64C1033.54 28.64 1034.14 28.4333 1034.6 28.02C1035.07 27.6067 1035.3 27.0067 1035.3 26.22C1035.3 25.7 1035.2 25.26 1035 24.9C1034.8 24.5333 1034.48 24.2567 1034.04 24.07C1033.6 23.8767 1033.03 23.78 1032.31 23.78H1028.57L1029.14 22.57H1033.73C1034.85 22.57 1035.75 22.7233 1036.43 23.03C1037.12 23.33 1037.62 23.7333 1037.92 24.24C1038.24 24.7467 1038.39 25.31 1038.39 25.93C1038.39 26.53 1038.25 27.07 1037.96 27.55C1037.68 28.03 1037.26 28.4233 1036.7 28.73C1036.15 29.0367 1035.45 29.23 1034.61 29.31V29.26C1035.25 29.2867 1035.76 29.3767 1036.12 29.53C1036.49 29.6767 1036.77 29.9 1036.97 30.2C1037.18 30.4933 1037.36 30.8767 1037.51 31.35L1038.31 33.83C1038.45 34.27 1038.59 34.59 1038.73 34.79C1038.87 34.9833 1039.04 35.1067 1039.22 35.16C1039.42 35.2067 1039.65 35.23 1039.93 35.23V36.03C1039.01 36.0967 1038.26 36.1167 1037.68 36.09C1037.1 36.07 1036.65 35.99 1036.31 35.85C1035.98 35.7033 1035.72 35.49 1035.54 35.21C1035.36 34.93 1035.21 34.57 1035.09 34.13L1034.41 31.66C1034.28 31.18 1034.14 30.81 1034 30.55C1033.86 30.29 1033.69 30.11 1033.47 30.01C1033.26 29.9033 1032.97 29.85 1032.61 29.85H1029.04L1028.46 28.64H1032.8ZM1031.11 22.57V34.99L1032.56 35.57V36H1026.52V35.57L1027.98 34.99V23.58L1026.52 23V22.57H1031.11ZM1053.72 25.23L1049.8 36.07H1047.83L1044.28 23.61L1042.8 23V22.57H1049.26V23L1047.6 23.59L1050.27 33.34L1049.57 33.37L1053.35 22.5H1055.35L1059.43 33.48L1058.59 33.61L1060.94 23.59L1059.32 23V22.57H1063.7V23L1062.26 23.59L1059.02 36.07H1057.05L1052.95 25.35L1053.72 25.23ZM1070.76 22.3C1071.8 22.3 1072.74 22.4667 1073.58 22.8C1074.44 23.1267 1075.17 23.5967 1075.77 24.21C1076.39 24.8233 1076.86 25.5567 1077.19 26.41C1077.53 27.2633 1077.69 28.2133 1077.69 29.26C1077.69 30.2933 1077.52 31.24 1077.16 32.1C1076.81 32.9533 1076.31 33.6933 1075.66 34.32C1075.02 34.94 1074.26 35.42 1073.38 35.76C1072.51 36.0933 1071.54 36.26 1070.48 36.26C1069.45 36.26 1068.51 36.0967 1067.66 35.77C1066.82 35.4367 1066.09 34.9667 1065.47 34.36C1064.86 33.7467 1064.39 33.0133 1064.05 32.16C1063.73 31.3 1063.56 30.35 1063.56 29.31C1063.56 28.27 1063.74 27.3233 1064.08 26.47C1064.44 25.61 1064.93 24.87 1065.57 24.25C1066.22 23.63 1066.98 23.15 1067.85 22.81C1068.73 22.47 1069.7 22.3 1070.76 22.3ZM1070.72 34.96C1071.45 34.96 1072.09 34.7733 1072.64 34.4C1073.2 34.0267 1073.64 33.4633 1073.95 32.71C1074.27 31.9567 1074.43 31.01 1074.43 29.87C1074.43 28.4833 1074.27 27.3267 1073.93 26.4C1073.6 25.4733 1073.14 24.7767 1072.55 24.31C1071.97 23.8367 1071.29 23.6 1070.52 23.6C1069.8 23.6 1069.16 23.7867 1068.6 24.16C1068.05 24.5333 1067.61 25.0967 1067.29 25.85C1066.98 26.6033 1066.82 27.5533 1066.82 28.7C1066.82 30.08 1066.99 31.2367 1067.31 32.17C1067.65 33.0967 1068.11 33.7933 1068.69 34.26C1069.29 34.7267 1069.96 34.96 1070.72 34.96ZM1084.99 28.64C1085.73 28.64 1086.33 28.4333 1086.79 28.02C1087.26 27.6067 1087.49 27.0067 1087.49 26.22C1087.49 25.7 1087.39 25.26 1087.19 24.9C1086.99 24.5333 1086.67 24.2567 1086.23 24.07C1085.79 23.8767 1085.22 23.78 1084.5 23.78H1080.76L1081.33 22.57H1085.92C1087.04 22.57 1087.94 22.7233 1088.62 23.03C1089.31 23.33 1089.81 23.7333 1090.11 24.24C1090.43 24.7467 1090.58 25.31 1090.58 25.93C1090.58 26.53 1090.44 27.07 1090.15 27.55C1089.87 28.03 1089.45 28.4233 1088.89 28.73C1088.34 29.0367 1087.64 29.23 1086.8 29.31V29.26C1087.44 29.2867 1087.95 29.3767 1088.31 29.53C1088.68 29.6767 1088.96 29.9 1089.16 30.2C1089.37 30.4933 1089.55 30.8767 1089.7 31.35L1090.5 33.83C1090.64 34.27 1090.78 34.59 1090.92 34.79C1091.06 34.9833 1091.23 35.1067 1091.41 35.16C1091.61 35.2067 1091.84 35.23 1092.12 35.23V36.03C1091.2 36.0967 1090.45 36.1167 1089.87 36.09C1089.29 36.07 1088.84 35.99 1088.5 35.85C1088.17 35.7033 1087.91 35.49 1087.73 35.21C1087.55 34.93 1087.4 34.57 1087.28 34.13L1086.6 31.66C1086.47 31.18 1086.33 30.81 1086.19 30.55C1086.05 30.29 1085.88 30.11 1085.66 30.01C1085.45 29.9033 1085.16 29.85 1084.8 29.85H1081.23L1080.65 28.64H1084.99ZM1083.3 22.57V34.99L1084.75 35.57V36H1078.71V35.57L1080.17 34.99V23.58L1078.71 23V22.57H1083.3ZM1106.32 34.96L1107.73 35.57V36H1101.15V35.57L1102.48 35.04L1098.26 29.63H1096.07V28.44H1098.6L1103.49 23.52L1101.98 23V22.57H1106.57V23L1105.13 23.5L1099.62 28.88L1100.45 27.53L1106.32 34.96ZM1097.17 23.58V34.99L1098.54 35.57V36H1092.59V35.57L1094.04 34.99V23.58L1092.59 23V22.57H1098.62V23L1097.17 23.58Z" fill="#87D498"/>
<path d="M1143.49 23.1L1141.91 22.84L1143.18 21.86H1143.53L1144.32 26.56L1143.71 26.7L1141.55 23.48L1142.25 24.28C1141.9 24.02 1141.52 23.8233 1141.13 23.69C1140.74 23.5567 1140.35 23.49 1139.94 23.49C1139.11 23.49 1138.51 23.65 1138.13 23.97C1137.76 24.2833 1137.57 24.7067 1137.57 25.24C1137.57 25.6067 1137.67 25.9167 1137.86 26.17C1138.05 26.4167 1138.31 26.63 1138.64 26.81C1138.97 26.99 1139.35 27.1533 1139.76 27.3C1140.17 27.44 1140.6 27.5867 1141.05 27.74C1141.5 27.9 1141.94 28.0833 1142.39 28.29C1142.84 28.4967 1143.24 28.7533 1143.61 29.06C1143.98 29.36 1144.28 29.74 1144.5 30.2C1144.73 30.6533 1144.84 31.2033 1144.84 31.85C1144.84 32.8167 1144.6 33.6267 1144.11 34.28C1143.63 34.9333 1142.98 35.4267 1142.15 35.76C1141.32 36.0933 1140.39 36.26 1139.34 36.26C1138.63 36.26 1137.98 36.2167 1137.41 36.13C1136.84 36.0433 1136.25 35.8867 1135.62 35.66L1134.75 31.79H1135.37L1138.36 35.66L1136.08 34.23C1136.61 34.51 1137.09 34.71 1137.51 34.83C1137.94 34.95 1138.39 35.01 1138.86 35.01C1139.59 35.01 1140.18 34.93 1140.64 34.77C1141.11 34.61 1141.45 34.3733 1141.68 34.06C1141.91 33.74 1142.02 33.35 1142.02 32.89C1142.02 32.45 1141.9 32.0867 1141.67 31.8C1141.44 31.5067 1141.13 31.2633 1140.75 31.07C1140.38 30.8767 1139.96 30.71 1139.51 30.57C1139.06 30.4233 1138.63 30.27 1138.2 30.11C1137.77 29.95 1137.36 29.77 1136.97 29.57C1136.58 29.3633 1136.24 29.1167 1135.93 28.83C1135.63 28.5367 1135.39 28.18 1135.22 27.76C1135.05 27.34 1134.96 26.8333 1134.96 26.24C1134.96 25.44 1135.17 24.7467 1135.58 24.16C1135.99 23.5733 1136.58 23.1167 1137.34 22.79C1138.1 22.4633 1139 22.3 1140.03 22.3C1140.67 22.3 1141.26 22.3633 1141.81 22.49C1142.36 22.61 1142.92 22.8133 1143.49 23.1ZM1150.76 23.21H1153.88V34.99L1155.34 35.57V36H1149.3V35.57L1150.76 34.99V23.21ZM1157.52 23.78H1146.87L1148.14 23.44L1146.37 26.63L1145.75 26.5L1146.18 21.84H1146.54L1148.26 22.81L1147.1 22.57H1157.29L1156.48 22.81L1158.2 21.84H1158.56L1158.99 26.5L1158.38 26.63L1156.61 23.44L1157.52 23.78ZM1160.63 31.54V30.37H1167.42V31.54H1160.63ZM1171.05 34.96L1172.53 35.57V36H1166.04V35.57L1167.7 34.98L1163.45 24.93L1163.88 24.92L1159.87 34.98L1161.43 35.57V36H1156.98V35.57L1158.51 34.98L1163.67 22.5H1165.64L1171.05 34.96ZM1179.21 28.64C1179.95 28.64 1180.55 28.4333 1181.01 28.02C1181.48 27.6067 1181.71 27.0067 1181.71 26.22C1181.71 25.7 1181.61 25.26 1181.41 24.9C1181.21 24.5333 1180.89 24.2567 1180.45 24.07C1180.01 23.8767 1179.44 23.78 1178.72 23.78H1174.98L1175.55 22.57H1180.14C1181.26 22.57 1182.16 22.7233 1182.84 23.03C1183.53 23.33 1184.03 23.7333 1184.33 24.24C1184.65 24.7467 1184.8 25.31 1184.8 25.93C1184.8 26.53 1184.66 27.07 1184.37 27.55C1184.09 28.03 1183.67 28.4233 1183.11 28.73C1182.56 29.0367 1181.86 29.23 1181.02 29.31V29.26C1181.66 29.2867 1182.17 29.3767 1182.53 29.53C1182.9 29.6767 1183.18 29.9 1183.38 30.2C1183.59 30.4933 1183.77 30.8767 1183.92 31.35L1184.72 33.83C1184.86 34.27 1185 34.59 1185.14 34.79C1185.28 34.9833 1185.45 35.1067 1185.63 35.16C1185.83 35.2067 1186.06 35.23 1186.34 35.23V36.03C1185.42 36.0967 1184.67 36.1167 1184.09 36.09C1183.51 36.07 1183.06 35.99 1182.72 35.85C1182.39 35.7033 1182.13 35.49 1181.95 35.21C1181.77 34.93 1181.62 34.57 1181.5 34.13L1180.82 31.66C1180.69 31.18 1180.55 30.81 1180.41 30.55C1180.27 30.29 1180.1 30.11 1179.88 30.01C1179.67 29.9033 1179.38 29.85 1179.02 29.85H1175.45L1174.87 28.64H1179.21ZM1177.52 22.57V34.99L1178.97 35.57V36H1172.93V35.57L1174.39 34.99V23.58L1172.93 23V22.57H1177.52ZM1191.38 23.21H1194.5V34.99L1195.96 35.57V36H1189.92V35.57L1191.38 34.99V23.21ZM1198.14 23.78H1187.49L1188.76 23.44L1186.99 26.63L1186.37 26.5L1186.8 21.84H1187.16L1188.88 22.81L1187.72 22.57H1197.91L1197.1 22.81L1198.82 21.84H1199.18L1199.61 26.5L1199 26.63L1197.23 23.44L1198.14 23.78ZM1215.03 36.8H1214.63L1213.19 36H1207.17V34.79H1213.8L1212.88 35.21L1215.46 31.4L1216.02 31.54L1215.03 36.8ZM1208.79 23.58V36H1204.21V35.57L1205.66 34.99V23.58L1204.21 23V22.57H1210.24V23L1208.79 23.58ZM1219.64 31.54V30.37H1226.43V31.54H1219.64ZM1230.06 34.96L1231.54 35.57V36H1225.05V35.57L1226.71 34.98L1222.46 24.93L1222.89 24.92L1218.88 34.98L1220.44 35.57V36H1215.99V35.57L1217.52 34.98L1222.68 22.5H1224.65L1230.06 34.96ZM1233.44 34.99V23.77L1231.79 22.95V22.57H1236.82L1244.08 32.77L1243.28 33.27V23.58L1241.67 23V22.57H1245.9V23L1244.45 23.58V36.07H1242.54L1234.12 24.01L1234.6 23.66V34.99L1236.21 35.57V36H1231.98V35.57L1233.44 34.99ZM1257.99 29.11C1257.99 27.27 1257.54 25.9233 1256.64 25.07C1255.75 24.21 1254.52 23.78 1252.96 23.78H1250.21L1249.95 22.57H1253.44C1255.19 22.57 1256.64 22.8 1257.79 23.26C1258.95 23.72 1259.82 24.42 1260.39 25.36C1260.97 26.2933 1261.26 27.47 1261.26 28.89C1261.26 30.39 1260.92 31.67 1260.24 32.73C1259.56 33.79 1258.63 34.6 1257.45 35.16C1256.27 35.72 1254.94 36 1253.46 36H1249.95L1250.21 34.79H1253.14C1254.11 34.79 1254.96 34.5967 1255.69 34.21C1256.42 33.8233 1256.98 33.2133 1257.38 32.38C1257.79 31.54 1257.99 30.45 1257.99 29.11ZM1247.12 36V35.57L1248.57 34.99V23.58L1247.12 23V22.57H1251.7V36H1247.12ZM1268.52 35.57V36H1262.49V35.57L1263.94 34.99V23.58L1262.49 23V22.57H1268.52V23L1267.07 23.58V34.99L1268.52 35.57ZM1271.37 34.99V23.77L1269.72 22.95V22.57H1274.75L1282.01 32.77L1281.21 33.27V23.58L1279.6 23V22.57H1283.83V23L1282.38 23.58V36.07H1280.47L1272.05 24.01L1272.53 23.66V34.99L1274.14 35.57V36H1269.91V35.57L1271.37 34.99ZM1297.9 34.25L1298.27 35.18V35.29C1297.73 35.5033 1297.15 35.6833 1296.55 35.83C1295.95 35.9767 1295.33 36.0833 1294.67 36.15C1294.03 36.2233 1293.35 36.26 1292.64 36.26C1291.41 36.26 1290.31 36.1067 1289.35 35.8C1288.4 35.4867 1287.59 35.0333 1286.93 34.44C1286.28 33.8467 1285.79 33.1267 1285.45 32.28C1285.12 31.4267 1284.95 30.4633 1284.95 29.39C1284.95 27.9833 1285.28 26.75 1285.93 25.69C1286.59 24.6233 1287.53 23.7933 1288.75 23.2C1289.97 22.6 1291.43 22.3 1293.13 22.3C1293.6 22.3 1294.05 22.3267 1294.49 22.38C1294.93 22.4333 1295.44 22.5267 1296.02 22.66L1295.18 22.85L1296.54 21.86H1296.91L1297.63 26.87L1297.01 27.01L1294.83 23.56L1295.89 24.66C1295.4 24.28 1294.9 24.0033 1294.38 23.83C1293.87 23.65 1293.3 23.56 1292.67 23.56C1291.95 23.56 1291.3 23.6633 1290.74 23.87C1290.19 24.07 1289.72 24.38 1289.34 24.8C1288.97 25.22 1288.68 25.7467 1288.48 26.38C1288.29 27.0067 1288.19 27.7467 1288.19 28.6C1288.19 30.0133 1288.4 31.1967 1288.82 32.15C1289.25 33.0967 1289.83 33.81 1290.56 34.29C1291.3 34.7633 1292.12 35 1293.04 35C1293.43 35 1293.8 34.9667 1294.14 34.9C1294.5 34.8333 1294.83 34.7333 1295.13 34.6C1295.44 34.46 1295.71 34.2933 1295.93 34.1L1294.78 35.57V31.03L1293.22 30.43V30H1299.24V30.43L1297.9 31.01V34.25ZM1310.3 35.57V36H1304.27V35.57L1305.72 34.99V23.58L1304.27 23V22.57H1310.3V23L1308.85 23.58V34.99L1310.3 35.57ZM1313.14 34.99V23.77L1311.49 22.95V22.57H1316.52L1323.78 32.77L1322.98 33.27V23.58L1321.37 23V22.57H1325.6V23L1324.15 23.58V36.07H1322.24L1313.82 24.01L1314.3 23.66V34.99L1315.91 35.57V36H1311.68V35.57L1313.14 34.99ZM1331.48 23.21H1334.6V34.99L1336.06 35.57V36H1330.02V35.57L1331.48 34.99V23.21ZM1338.24 23.78H1327.59L1328.86 23.44L1327.09 26.63L1326.47 26.5L1326.9 21.84H1327.26L1328.98 22.81L1327.82 22.57H1338.01L1337.2 22.81L1338.92 21.84H1339.28L1339.71 26.5L1339.1 26.63L1337.33 23.44L1338.24 23.78ZM1349.64 26.31L1349.62 28.95L1349.64 31.59H1348.68L1348.42 29.56L1343.72 29.55V28.35L1348.42 28.34L1348.68 26.31H1349.64ZM1352.41 26.47L1351.84 26.61L1349.66 23.32L1350.51 23.78H1343.68V22.57H1350.06L1351.3 21.9H1351.6L1352.41 26.47ZM1350 35.24L1352.34 31.68L1352.84 31.81L1351.98 36.73H1351.65L1350.31 36H1343.68V34.79H1350.66L1350 35.24ZM1340.72 36V35.57L1342.17 34.99V23.58L1340.72 23V22.57H1345.3V36H1340.72ZM1360.23 28.64C1360.97 28.64 1361.57 28.4333 1362.03 28.02C1362.49 27.6067 1362.73 27.0067 1362.73 26.22C1362.73 25.7 1362.63 25.26 1362.43 24.9C1362.23 24.5333 1361.91 24.2567 1361.47 24.07C1361.03 23.8767 1360.45 23.78 1359.74 23.78H1356L1356.57 22.57H1361.16C1362.28 22.57 1363.18 22.7233 1363.86 23.03C1364.54 23.33 1365.04 23.7333 1365.35 24.24C1365.66 24.7467 1365.82 25.31 1365.82 25.93C1365.82 26.53 1365.67 27.07 1365.39 27.55C1365.11 28.03 1364.69 28.4233 1364.13 28.73C1363.57 29.0367 1362.88 29.23 1362.04 29.31V29.26C1362.68 29.2867 1363.18 29.3767 1363.55 29.53C1363.91 29.6767 1364.2 29.9 1364.4 30.2C1364.6 30.4933 1364.78 30.8767 1364.94 31.35L1365.74 33.83C1365.88 34.27 1366.02 34.59 1366.16 34.79C1366.3 34.9833 1366.46 35.1067 1366.65 35.16C1366.84 35.2067 1367.08 35.23 1367.36 35.23V36.03C1366.44 36.0967 1365.69 36.1167 1365.11 36.09C1364.53 36.07 1364.07 35.99 1363.74 35.85C1363.4 35.7033 1363.15 35.49 1362.97 35.21C1362.79 34.93 1362.64 34.57 1362.52 34.13L1361.84 31.66C1361.7 31.18 1361.57 30.81 1361.43 30.55C1361.29 30.29 1361.11 30.11 1360.9 30.01C1360.68 29.9033 1360.4 29.85 1360.04 29.85H1356.47L1355.89 28.64H1360.23ZM1358.54 22.57V34.99L1359.99 35.57V36H1353.95V35.57L1355.41 34.99V23.58L1353.95 23V22.57H1358.54ZM1367.91 23.61L1366.43 23V22.57H1373V23L1371.31 23.59L1375.36 33.63L1374.88 33.65L1378.47 23.59L1376.88 23V22.57H1381.27V23L1379.8 23.59L1375.1 36.07H1373.13L1367.91 23.61ZM1387.82 35.57V36H1381.79V35.57L1383.24 34.99V23.58L1381.79 23V22.57H1387.82V23L1386.37 23.58V34.99L1387.82 35.57ZM1398.09 26.31L1398.07 28.95L1398.09 31.59H1397.13L1396.87 29.56L1392.17 29.55V28.35L1396.87 28.34L1397.13 26.31H1398.09ZM1400.86 26.47L1400.29 26.61L1398.11 23.32L1398.96 23.78H1392.13V22.57H1398.51L1399.75 21.9H1400.05L1400.86 26.47ZM1398.45 35.24L1400.79 31.68L1401.29 31.81L1400.43 36.73H1400.1L1398.76 36H1392.13V34.79H1399.11L1398.45 35.24ZM1389.17 36V35.57L1390.62 34.99V23.58L1389.17 23V22.57H1393.75V36H1389.17ZM1412.29 25.23L1408.37 36.07H1406.4L1402.85 23.61L1401.37 23V22.57H1407.83V23L1406.17 23.59L1408.84 33.34L1408.14 33.37L1411.92 22.5H1413.92L1418 33.48L1417.16 33.61L1419.51 23.59L1417.89 23V22.57H1422.27V23L1420.83 23.59L1417.59 36.07H1415.62L1411.52 25.35L1412.29 25.23ZM1431.3 23.1L1429.72 22.84L1430.99 21.86H1431.34L1432.13 26.56L1431.52 26.7L1429.36 23.48L1430.06 24.28C1429.71 24.02 1429.34 23.8233 1428.94 23.69C1428.56 23.5567 1428.16 23.49 1427.75 23.49C1426.93 23.49 1426.32 23.65 1425.94 23.97C1425.57 24.2833 1425.38 24.7067 1425.38 25.24C1425.38 25.6067 1425.48 25.9167 1425.67 26.17C1425.87 26.4167 1426.13 26.63 1426.45 26.81C1426.79 26.99 1427.16 27.1533 1427.57 27.3C1427.99 27.44 1428.42 27.5867 1428.86 27.74C1429.31 27.9 1429.76 28.0833 1430.2 28.29C1430.65 28.4967 1431.06 28.7533 1431.42 29.06C1431.8 29.36 1432.09 29.74 1432.31 30.2C1432.54 30.6533 1432.65 31.2033 1432.65 31.85C1432.65 32.8167 1432.41 33.6267 1431.92 34.28C1431.44 34.9333 1430.79 35.4267 1429.96 35.76C1429.14 36.0933 1428.2 36.26 1427.15 36.26C1426.44 36.26 1425.8 36.2167 1425.22 36.13C1424.66 36.0433 1424.06 35.8867 1423.43 35.66L1422.56 31.79H1423.18L1426.17 35.66L1423.89 34.23C1424.43 34.51 1424.9 34.71 1425.32 34.83C1425.75 34.95 1426.2 35.01 1426.67 35.01C1427.4 35.01 1427.99 34.93 1428.45 34.77C1428.92 34.61 1429.27 34.3733 1429.49 34.06C1429.72 33.74 1429.83 33.35 1429.83 32.89C1429.83 32.45 1429.72 32.0867 1429.48 31.8C1429.25 31.5067 1428.94 31.2633 1428.56 31.07C1428.19 30.8767 1427.78 30.71 1427.32 30.57C1426.88 30.4233 1426.44 30.27 1426.01 30.11C1425.59 29.95 1425.18 29.77 1424.78 29.57C1424.4 29.3633 1424.05 29.1167 1423.74 28.83C1423.44 28.5367 1423.21 28.18 1423.03 27.76C1422.86 27.34 1422.77 26.8333 1422.77 26.24C1422.77 25.44 1422.98 24.7467 1423.39 24.16C1423.81 23.5733 1424.39 23.1167 1425.15 22.79C1425.91 22.4633 1426.81 22.3 1427.84 22.3C1428.48 22.3 1429.08 22.3633 1429.62 22.49C1430.17 22.61 1430.73 22.8133 1431.3 23.1Z" fill="#87D498"/>
<mask id="path-6-outside-1_4_488" maskUnits="userSpaceOnUse" x="1115" y="19" width="15" height="17" fill="black">
<rect fill="white" x="1115" y="19" width="15" height="17"/>
<path d="M1125.26 33.42L1124.46 33.78L1121.94 29.3L1117.66 32.12L1117.1 31.44L1120.58 27.68L1116.54 24.48L1117.02 23.72L1121.7 25.9L1123.52 21.08L1124.36 21.28L1123.72 26.4L1128.84 26.6L1128.92 27.48L1123.88 28.5L1125.26 33.42Z"/>
</mask>
<path d="M1125.26 33.42L1124.46 33.78L1121.94 29.3L1117.66 32.12L1117.1 31.44L1120.58 27.68L1116.54 24.48L1117.02 23.72L1121.7 25.9L1123.52 21.08L1124.36 21.28L1123.72 26.4L1128.84 26.6L1128.92 27.48L1123.88 28.5L1125.26 33.42Z" fill="#87D498"/>
<path d="M1125.26 33.42L1125.67 34.3319L1126.46 33.9787L1126.22 33.1499L1125.26 33.42ZM1124.46 33.78L1123.59 34.2703L1124.04 35.0671L1124.87 34.6919L1124.46 33.78ZM1121.94 29.3L1122.81 28.8097L1122.29 27.8747L1121.39 28.465L1121.94 29.3ZM1117.66 32.12L1116.89 32.7557L1117.46 33.4496L1118.21 32.955L1117.66 32.12ZM1117.1 31.44L1116.37 30.7607L1115.77 31.4016L1116.33 32.0757L1117.1 31.44ZM1120.58 27.68L1121.31 28.3593L1122.05 27.5667L1121.2 26.8961L1120.58 27.68ZM1116.54 24.48L1115.69 23.946L1115.21 24.7059L1115.92 25.2639L1116.54 24.48ZM1117.02 23.72L1117.44 22.8135L1116.64 22.4419L1116.17 23.186L1117.02 23.72ZM1121.7 25.9L1121.28 26.8065L1122.25 27.2616L1122.64 26.2532L1121.7 25.9ZM1123.52 21.08L1123.75 20.1072L1122.9 19.9033L1122.58 20.7267L1123.52 21.08ZM1124.36 21.28L1125.35 21.404L1125.46 20.5148L1124.59 20.3072L1124.36 21.28ZM1123.72 26.4L1122.73 26.276L1122.59 27.3567L1123.68 27.3992L1123.72 26.4ZM1128.84 26.6L1129.84 26.5095L1129.76 25.635L1128.88 25.6008L1128.84 26.6ZM1128.92 27.48L1129.12 28.4601L1130 28.2823L1129.92 27.3895L1128.92 27.48ZM1123.88 28.5L1123.68 27.5199L1122.63 27.7334L1122.92 28.7701L1123.88 28.5ZM1125.26 33.42L1124.85 32.5081L1124.05 32.8681L1124.46 33.78L1124.87 34.6919L1125.67 34.3319L1125.26 33.42ZM1124.46 33.78L1125.33 33.2897L1122.81 28.8097L1121.94 29.3L1121.07 29.7903L1123.59 34.2703L1124.46 33.78ZM1121.94 29.3L1121.39 28.465L1117.11 31.285L1117.66 32.12L1118.21 32.955L1122.49 30.135L1121.94 29.3ZM1117.66 32.12L1118.43 31.4843L1117.87 30.8043L1117.1 31.44L1116.33 32.0757L1116.89 32.7557L1117.66 32.12ZM1117.1 31.44L1117.83 32.1193L1121.31 28.3593L1120.58 27.68L1119.85 27.0007L1116.37 30.7607L1117.1 31.44ZM1120.58 27.68L1121.2 26.8961L1117.16 23.6961L1116.54 24.48L1115.92 25.2639L1119.96 28.4639L1120.58 27.68ZM1116.54 24.48L1117.39 25.014L1117.87 24.254L1117.02 23.72L1116.17 23.186L1115.69 23.946L1116.54 24.48ZM1117.02 23.72L1116.6 24.6265L1121.28 26.8065L1121.7 25.9L1122.12 24.9935L1117.44 22.8135L1117.02 23.72ZM1121.7 25.9L1122.64 26.2532L1124.46 21.4332L1123.52 21.08L1122.58 20.7267L1120.76 25.5467L1121.7 25.9ZM1123.52 21.08L1123.29 22.0528L1124.13 22.2528L1124.36 21.28L1124.59 20.3072L1123.75 20.1072L1123.52 21.08ZM1124.36 21.28L1123.37 21.156L1122.73 26.276L1123.72 26.4L1124.71 26.524L1125.35 21.404L1124.36 21.28ZM1123.72 26.4L1123.68 27.3992L1128.8 27.5992L1128.84 26.6L1128.88 25.6008L1123.76 25.4008L1123.72 26.4ZM1128.84 26.6L1127.84 26.6905L1127.92 27.5705L1128.92 27.48L1129.92 27.3895L1129.84 26.5095L1128.84 26.6ZM1128.92 27.48L1128.72 26.4999L1123.68 27.5199L1123.88 28.5L1124.08 29.4801L1129.12 28.4601L1128.92 27.48ZM1123.88 28.5L1122.92 28.7701L1124.3 33.6901L1125.26 33.42L1126.22 33.1499L1124.84 28.2299L1123.88 28.5Z" fill="#87D498" mask="url(#path-6-outside-1_4_488)"/>
<mask id="path-8-outside-2_4_488" maskUnits="userSpaceOnUse" x="745" y="21" width="15" height="17" fill="black">
<rect fill="white" x="745" y="21" width="15" height="17"/>
<path d="M755.26 35.42L754.46 35.78L751.94 31.3L747.66 34.12L747.1 33.44L750.58 29.68L746.54 26.48L747.02 25.72L751.7 27.9L753.52 23.08L754.36 23.28L753.72 28.4L758.84 28.6L758.92 29.48L753.88 30.5L755.26 35.42Z"/>
</mask>
<path d="M755.26 35.42L754.46 35.78L751.94 31.3L747.66 34.12L747.1 33.44L750.58 29.68L746.54 26.48L747.02 25.72L751.7 27.9L753.52 23.08L754.36 23.28L753.72 28.4L758.84 28.6L758.92 29.48L753.88 30.5L755.26 35.42Z" fill="#87D498"/>
<path d="M755.26 35.42L755.67 36.3319L756.455 35.9787L756.223 35.1499L755.26 35.42ZM754.46 35.78L753.588 36.2703L754.037 37.0671L754.87 36.6919L754.46 35.78ZM751.94 31.3L752.812 30.8097L752.286 29.8747L751.39 30.465L751.94 31.3ZM747.66 34.12L746.888 34.7557L747.46 35.4496L748.21 34.955L747.66 34.12ZM747.1 33.44L746.366 32.7607L745.773 33.4016L746.328 34.0757L747.1 33.44ZM750.58 29.68L751.314 30.3593L752.047 29.5667L751.201 28.8961L750.58 29.68ZM746.54 26.48L745.695 25.946L745.215 26.7059L745.919 27.2639L746.54 26.48ZM747.02 25.72L747.442 24.8135L746.644 24.4419L746.175 25.186L747.02 25.72ZM751.7 27.9L751.278 28.8065L752.255 29.2616L752.636 28.2532L751.7 27.9ZM753.52 23.08L753.752 22.1072L752.895 21.9033L752.584 22.7267L753.52 23.08ZM754.36 23.28L755.352 23.404L755.463 22.5148L754.592 22.3072L754.36 23.28ZM753.72 28.4L752.728 28.276L752.593 29.3567L753.681 29.3992L753.72 28.4ZM758.84 28.6L759.836 28.5095L759.756 27.635L758.879 27.6008L758.84 28.6ZM758.92 29.48L759.118 30.4601L759.997 30.2823L759.916 29.3895L758.92 29.48ZM753.88 30.5L753.682 29.5199L752.626 29.7334L752.917 30.7701L753.88 30.5ZM755.26 35.42L754.85 34.5081L754.05 34.8681L754.46 35.78L754.87 36.6919L755.67 36.3319L755.26 35.42ZM754.46 35.78L755.332 35.2897L752.812 30.8097L751.94 31.3L751.068 31.7903L753.588 36.2703L754.46 35.78ZM751.94 31.3L751.39 30.465L747.11 33.285L747.66 34.12L748.21 34.955L752.49 32.135L751.94 31.3ZM747.66 34.12L748.432 33.4843L747.872 32.8043L747.1 33.44L746.328 34.0757L746.888 34.7557L747.66 34.12ZM747.1 33.44L747.834 34.1193L751.314 30.3593L750.58 29.68L749.846 29.0007L746.366 32.7607L747.1 33.44ZM750.58 29.68L751.201 28.8961L747.161 25.6961L746.54 26.48L745.919 27.2639L749.959 30.4639L750.58 29.68ZM746.54 26.48L747.385 27.014L747.865 26.254L747.02 25.72L746.175 25.186L745.695 25.946L746.54 26.48ZM747.02 25.72L746.598 26.6265L751.278 28.8065L751.7 27.9L752.122 26.9935L747.442 24.8135L747.02 25.72ZM751.7 27.9L752.636 28.2532L754.456 23.4332L753.52 23.08L752.584 22.7267L750.764 27.5467L751.7 27.9ZM753.52 23.08L753.288 24.0528L754.128 24.2528L754.36 23.28L754.592 22.3072L753.752 22.1072L753.52 23.08ZM754.36 23.28L753.368 23.156L752.728 28.276L753.72 28.4L754.712 28.524L755.352 23.404L754.36 23.28ZM753.72 28.4L753.681 29.3992L758.801 29.5992L758.84 28.6L758.879 27.6008L753.759 27.4008L753.72 28.4ZM758.84 28.6L757.844 28.6905L757.924 29.5705L758.92 29.48L759.916 29.3895L759.836 28.5095L758.84 28.6ZM758.92 29.48L758.722 28.4999L753.682 29.5199L753.88 30.5L754.078 31.4801L759.118 30.4601L758.92 29.48ZM753.88 30.5L752.917 30.7701L754.297 35.6901L755.26 35.42L756.223 35.1499L754.843 30.2299L753.88 30.5Z" fill="#87D498" mask="url(#path-8-outside-2_4_488)"/>
<mask id="path-10-outside-3_4_488" maskUnits="userSpaceOnUse" x="303" y="19" width="15" height="17" fill="black">
<rect fill="white" x="303" y="19" width="15" height="17"/>
<path d="M313.26 33.42L312.46 33.78L309.94 29.3L305.66 32.12L305.1 31.44L308.58 27.68L304.54 24.48L305.02 23.72L309.7 25.9L311.52 21.08L312.36 21.28L311.72 26.4L316.84 26.6L316.92 27.48L311.88 28.5L313.26 33.42Z"/>
</mask>
<path d="M313.26 33.42L312.46 33.78L309.94 29.3L305.66 32.12L305.1 31.44L308.58 27.68L304.54 24.48L305.02 23.72L309.7 25.9L311.52 21.08L312.36 21.28L311.72 26.4L316.84 26.6L316.92 27.48L311.88 28.5L313.26 33.42Z" fill="#87D498"/>
<path d="M313.26 33.42L313.67 34.3319L314.455 33.9787L314.223 33.1499L313.26 33.42ZM312.46 33.78L311.588 34.2703L312.037 35.0671L312.87 34.6919L312.46 33.78ZM309.94 29.3L310.812 28.8097L310.286 27.8747L309.39 28.465L309.94 29.3ZM305.66 32.12L304.888 32.7557L305.46 33.4496L306.21 32.955L305.66 32.12ZM305.1 31.44L304.366 30.7607L303.773 31.4016L304.328 32.0757L305.1 31.44ZM308.58 27.68L309.314 28.3593L310.047 27.5667L309.201 26.8961L308.58 27.68ZM304.54 24.48L303.695 23.946L303.215 24.7059L303.919 25.2639L304.54 24.48ZM305.02 23.72L305.442 22.8135L304.644 22.4419L304.175 23.186L305.02 23.72ZM309.7 25.9L309.278 26.8065L310.255 27.2616L310.636 26.2532L309.7 25.9ZM311.52 21.08L311.752 20.1072L310.895 19.9033L310.584 20.7267L311.52 21.08ZM312.36 21.28L313.352 21.404L313.463 20.5148L312.592 20.3072L312.36 21.28ZM311.72 26.4L310.728 26.276L310.593 27.3567L311.681 27.3992L311.72 26.4ZM316.84 26.6L317.836 26.5095L317.756 25.635L316.879 25.6008L316.84 26.6ZM316.92 27.48L317.118 28.4601L317.997 28.2823L317.916 27.3895L316.92 27.48ZM311.88 28.5L311.682 27.5199L310.626 27.7334L310.917 28.7701L311.88 28.5ZM313.26 33.42L312.85 32.5081L312.05 32.8681L312.46 33.78L312.87 34.6919L313.67 34.3319L313.26 33.42ZM312.46 33.78L313.332 33.2897L310.812 28.8097L309.94 29.3L309.068 29.7903L311.588 34.2703L312.46 33.78ZM309.94 29.3L309.39 28.465L305.11 31.285L305.66 32.12L306.21 32.955L310.49 30.135L309.94 29.3ZM305.66 32.12L306.432 31.4843L305.872 30.8043L305.1 31.44L304.328 32.0757L304.888 32.7557L305.66 32.12ZM305.1 31.44L305.834 32.1193L309.314 28.3593L308.58 27.68L307.846 27.0007L304.366 30.7607L305.1 31.44ZM308.58 27.68L309.201 26.8961L305.161 23.6961L304.54 24.48L303.919 25.2639L307.959 28.4639L308.58 27.68ZM304.54 24.48L305.385 25.014L305.865 24.254L305.02 23.72L304.175 23.186L303.695 23.946L304.54 24.48ZM305.02 23.72L304.598 24.6265L309.278 26.8065L309.7 25.9L310.122 24.9935L305.442 22.8135L305.02 23.72ZM309.7 25.9L310.636 26.2532L312.456 21.4332L311.52 21.08L310.584 20.7267L308.764 25.5467L309.7 25.9ZM311.52 21.08L311.288 22.0528L312.128 22.2528L312.36 21.28L312.592 20.3072L311.752 20.1072L311.52 21.08ZM312.36 21.28L311.368 21.156L310.728 26.276L311.72 26.4L312.712 26.524L313.352 21.404L312.36 21.28ZM311.72 26.4L311.681 27.3992L316.801 27.5992L316.84 26.6L316.879 25.6008L311.759 25.4008L311.72 26.4ZM316.84 26.6L315.844 26.6905L315.924 27.5705L316.92 27.48L317.916 27.3895L317.836 26.5095L316.84 26.6ZM316.92 27.48L316.722 26.4999L311.682 27.5199L311.88 28.5L312.078 29.4801L317.118 28.4601L316.92 27.48ZM311.88 28.5L310.917 28.7701L312.297 33.6901L313.26 33.42L314.223 33.1499L312.843 28.2299L311.88 28.5Z" fill="#87D498" mask="url(#path-10-outside-3_4_488)"/>
</svg>
